<mxfile host="app.diagrams.net" agent="Mozilla/5.0 (Windows NT 10.0; Win64; x64) AppleWebKit/537.36 (KHTML, like Gecko) Chrome/133.0.0.0 Safari/537.36" version="24.7.10">
  <diagram name="Page-1" id="5pC_uRTY1LtM4O3uZqyJ">
    <mxGraphModel dx="792" dy="1097" grid="1" gridSize="10" guides="1" tooltips="1" connect="1" arrows="1" fold="1" page="1" pageScale="1" pageWidth="850" pageHeight="1100" math="0" shadow="0">
      <root>
        <mxCell id="0" />
        <mxCell id="1" parent="0" />
        <mxCell id="ROehiFO6zA04ljlGe-8Q-9" value="" style="edgeStyle=orthogonalEdgeStyle;rounded=0;orthogonalLoop=1;jettySize=auto;html=1;" edge="1" parent="1" source="ROehiFO6zA04ljlGe-8Q-1" target="ROehiFO6zA04ljlGe-8Q-4">
          <mxGeometry relative="1" as="geometry" />
        </mxCell>
        <mxCell id="ROehiFO6zA04ljlGe-8Q-25" style="edgeStyle=orthogonalEdgeStyle;rounded=0;orthogonalLoop=1;jettySize=auto;html=1;entryX=0.5;entryY=1;entryDx=0;entryDy=0;" edge="1" parent="1" source="ROehiFO6zA04ljlGe-8Q-1" target="ROehiFO6zA04ljlGe-8Q-22">
          <mxGeometry relative="1" as="geometry">
            <mxPoint x="60" y="520" as="targetPoint" />
            <Array as="points">
              <mxPoint x="60" y="80" />
              <mxPoint x="60" y="510" />
              <mxPoint x="620" y="510" />
            </Array>
          </mxGeometry>
        </mxCell>
        <mxCell id="ROehiFO6zA04ljlGe-8Q-1" value="&lt;font style=&quot;font-size: 32px;&quot;&gt;W1&lt;/font&gt;" style="ellipse;whiteSpace=wrap;html=1;aspect=fixed;" vertex="1" parent="1">
          <mxGeometry x="100" y="40" width="80" height="80" as="geometry" />
        </mxCell>
        <mxCell id="ROehiFO6zA04ljlGe-8Q-10" value="" style="edgeStyle=orthogonalEdgeStyle;rounded=0;orthogonalLoop=1;jettySize=auto;html=1;" edge="1" parent="1" source="ROehiFO6zA04ljlGe-8Q-2" target="ROehiFO6zA04ljlGe-8Q-5">
          <mxGeometry relative="1" as="geometry" />
        </mxCell>
        <mxCell id="ROehiFO6zA04ljlGe-8Q-21" style="edgeStyle=orthogonalEdgeStyle;rounded=0;orthogonalLoop=1;jettySize=auto;html=1;entryX=0;entryY=0.5;entryDx=0;entryDy=0;" edge="1" parent="1" source="ROehiFO6zA04ljlGe-8Q-2" target="ROehiFO6zA04ljlGe-8Q-19">
          <mxGeometry relative="1" as="geometry">
            <Array as="points">
              <mxPoint x="140" y="470" />
            </Array>
          </mxGeometry>
        </mxCell>
        <mxCell id="ROehiFO6zA04ljlGe-8Q-2" value="&lt;font style=&quot;font-size: 32px;&quot;&gt;W2&lt;/font&gt;" style="ellipse;whiteSpace=wrap;html=1;aspect=fixed;" vertex="1" parent="1">
          <mxGeometry x="100" y="290" width="80" height="80" as="geometry" />
        </mxCell>
        <mxCell id="ROehiFO6zA04ljlGe-8Q-16" style="edgeStyle=orthogonalEdgeStyle;rounded=0;orthogonalLoop=1;jettySize=auto;html=1;entryX=0.5;entryY=0;entryDx=0;entryDy=0;" edge="1" parent="1" source="ROehiFO6zA04ljlGe-8Q-4" target="ROehiFO6zA04ljlGe-8Q-11">
          <mxGeometry relative="1" as="geometry">
            <mxPoint x="410" y="80" as="targetPoint" />
          </mxGeometry>
        </mxCell>
        <mxCell id="ROehiFO6zA04ljlGe-8Q-4" value="" style="whiteSpace=wrap;html=1;aspect=fixed;" vertex="1" parent="1">
          <mxGeometry x="260" y="60" width="40" height="40" as="geometry" />
        </mxCell>
        <mxCell id="ROehiFO6zA04ljlGe-8Q-12" style="edgeStyle=orthogonalEdgeStyle;rounded=0;orthogonalLoop=1;jettySize=auto;html=1;exitX=1;exitY=0.5;exitDx=0;exitDy=0;entryX=0.5;entryY=1;entryDx=0;entryDy=0;" edge="1" parent="1" source="ROehiFO6zA04ljlGe-8Q-5" target="ROehiFO6zA04ljlGe-8Q-11">
          <mxGeometry relative="1" as="geometry" />
        </mxCell>
        <mxCell id="ROehiFO6zA04ljlGe-8Q-5" value="" style="whiteSpace=wrap;html=1;aspect=fixed;" vertex="1" parent="1">
          <mxGeometry x="260" y="310" width="40" height="40" as="geometry" />
        </mxCell>
        <mxCell id="ROehiFO6zA04ljlGe-8Q-6" value="&lt;font style=&quot;font-size: 28px;&quot;&gt;2&lt;/font&gt;" style="text;html=1;align=center;verticalAlign=middle;whiteSpace=wrap;rounded=0;" vertex="1" parent="1">
          <mxGeometry x="300" y="40" width="30" height="20" as="geometry" />
        </mxCell>
        <mxCell id="ROehiFO6zA04ljlGe-8Q-8" value="&lt;font style=&quot;font-size: 28px;&quot;&gt;2&lt;/font&gt;" style="text;html=1;align=center;verticalAlign=middle;whiteSpace=wrap;rounded=0;" vertex="1" parent="1">
          <mxGeometry x="300" y="290" width="30" height="20" as="geometry" />
        </mxCell>
        <mxCell id="ROehiFO6zA04ljlGe-8Q-18" value="" style="edgeStyle=orthogonalEdgeStyle;rounded=0;orthogonalLoop=1;jettySize=auto;html=1;" edge="1" parent="1" source="ROehiFO6zA04ljlGe-8Q-11" target="ROehiFO6zA04ljlGe-8Q-17">
          <mxGeometry relative="1" as="geometry" />
        </mxCell>
        <mxCell id="ROehiFO6zA04ljlGe-8Q-11" value="&lt;font style=&quot;font-size: 35px;&quot;&gt;+&lt;/font&gt;" style="ellipse;whiteSpace=wrap;html=1;aspect=fixed;" vertex="1" parent="1">
          <mxGeometry x="380" y="180" width="50" height="50" as="geometry" />
        </mxCell>
        <mxCell id="ROehiFO6zA04ljlGe-8Q-28" value="" style="edgeStyle=orthogonalEdgeStyle;rounded=0;orthogonalLoop=1;jettySize=auto;html=1;" edge="1" parent="1" source="ROehiFO6zA04ljlGe-8Q-17" target="ROehiFO6zA04ljlGe-8Q-26">
          <mxGeometry relative="1" as="geometry" />
        </mxCell>
        <mxCell id="ROehiFO6zA04ljlGe-8Q-17" value="&lt;span style=&quot;font-size: 35px;&quot;&gt;ln&lt;/span&gt;" style="ellipse;whiteSpace=wrap;html=1;aspect=fixed;" vertex="1" parent="1">
          <mxGeometry x="490" y="180" width="50" height="50" as="geometry" />
        </mxCell>
        <mxCell id="ROehiFO6zA04ljlGe-8Q-23" style="edgeStyle=orthogonalEdgeStyle;rounded=0;orthogonalLoop=1;jettySize=auto;html=1;" edge="1" parent="1" source="ROehiFO6zA04ljlGe-8Q-19" target="ROehiFO6zA04ljlGe-8Q-22">
          <mxGeometry relative="1" as="geometry" />
        </mxCell>
        <mxCell id="ROehiFO6zA04ljlGe-8Q-19" value="&lt;font style=&quot;font-size: 22px;&quot;&gt;exp&lt;/font&gt;" style="whiteSpace=wrap;html=1;aspect=fixed;" vertex="1" parent="1">
          <mxGeometry x="260" y="450" width="40" height="40" as="geometry" />
        </mxCell>
        <mxCell id="ROehiFO6zA04ljlGe-8Q-27" style="edgeStyle=orthogonalEdgeStyle;rounded=0;orthogonalLoop=1;jettySize=auto;html=1;entryX=0.5;entryY=1;entryDx=0;entryDy=0;" edge="1" parent="1" source="ROehiFO6zA04ljlGe-8Q-22" target="ROehiFO6zA04ljlGe-8Q-26">
          <mxGeometry relative="1" as="geometry" />
        </mxCell>
        <mxCell id="ROehiFO6zA04ljlGe-8Q-22" value="&lt;font style=&quot;font-size: 29px;&quot;&gt;*&lt;/font&gt;" style="whiteSpace=wrap;html=1;aspect=fixed;" vertex="1" parent="1">
          <mxGeometry x="600" y="450" width="40" height="40" as="geometry" />
        </mxCell>
        <mxCell id="ROehiFO6zA04ljlGe-8Q-30" value="" style="edgeStyle=orthogonalEdgeStyle;rounded=0;orthogonalLoop=1;jettySize=auto;html=1;" edge="1" parent="1" source="ROehiFO6zA04ljlGe-8Q-26" target="ROehiFO6zA04ljlGe-8Q-29">
          <mxGeometry relative="1" as="geometry" />
        </mxCell>
        <mxCell id="ROehiFO6zA04ljlGe-8Q-26" value="&lt;font style=&quot;font-size: 35px;&quot;&gt;+&lt;/font&gt;" style="ellipse;whiteSpace=wrap;html=1;aspect=fixed;" vertex="1" parent="1">
          <mxGeometry x="595" y="180" width="50" height="50" as="geometry" />
        </mxCell>
        <mxCell id="ROehiFO6zA04ljlGe-8Q-29" value="&lt;font style=&quot;font-size: 32px;&quot;&gt;f1&lt;/font&gt;" style="ellipse;whiteSpace=wrap;html=1;aspect=fixed;" vertex="1" parent="1">
          <mxGeometry x="710" y="165" width="80" height="80" as="geometry" />
        </mxCell>
        <mxCell id="ROehiFO6zA04ljlGe-8Q-36" value="" style="edgeStyle=orthogonalEdgeStyle;rounded=0;orthogonalLoop=1;jettySize=auto;html=1;" edge="1" parent="1" source="ROehiFO6zA04ljlGe-8Q-31" target="ROehiFO6zA04ljlGe-8Q-35">
          <mxGeometry relative="1" as="geometry" />
        </mxCell>
        <mxCell id="ROehiFO6zA04ljlGe-8Q-40" style="edgeStyle=orthogonalEdgeStyle;rounded=0;orthogonalLoop=1;jettySize=auto;html=1;entryX=0.5;entryY=1;entryDx=0;entryDy=0;" edge="1" parent="1" source="ROehiFO6zA04ljlGe-8Q-31" target="ROehiFO6zA04ljlGe-8Q-38">
          <mxGeometry relative="1" as="geometry" />
        </mxCell>
        <mxCell id="ROehiFO6zA04ljlGe-8Q-31" value="&lt;font style=&quot;font-size: 32px;&quot;&gt;W1&lt;/font&gt;" style="ellipse;whiteSpace=wrap;html=1;aspect=fixed;" vertex="1" parent="1">
          <mxGeometry x="100" y="760" width="80" height="80" as="geometry" />
        </mxCell>
        <mxCell id="ROehiFO6zA04ljlGe-8Q-34" value="" style="edgeStyle=orthogonalEdgeStyle;rounded=0;orthogonalLoop=1;jettySize=auto;html=1;" edge="1" parent="1" source="ROehiFO6zA04ljlGe-8Q-32" target="ROehiFO6zA04ljlGe-8Q-33">
          <mxGeometry relative="1" as="geometry" />
        </mxCell>
        <mxCell id="ROehiFO6zA04ljlGe-8Q-32" value="&lt;font style=&quot;font-size: 32px;&quot;&gt;W2&lt;/font&gt;" style="ellipse;whiteSpace=wrap;html=1;aspect=fixed;" vertex="1" parent="1">
          <mxGeometry x="100" y="970" width="80" height="80" as="geometry" />
        </mxCell>
        <mxCell id="ROehiFO6zA04ljlGe-8Q-37" style="edgeStyle=orthogonalEdgeStyle;rounded=0;orthogonalLoop=1;jettySize=auto;html=1;entryX=0.5;entryY=1;entryDx=0;entryDy=0;" edge="1" parent="1" source="ROehiFO6zA04ljlGe-8Q-33" target="ROehiFO6zA04ljlGe-8Q-35">
          <mxGeometry relative="1" as="geometry" />
        </mxCell>
        <mxCell id="ROehiFO6zA04ljlGe-8Q-33" value="&lt;span style=&quot;font-size: 32px;&quot;&gt;sin&lt;/span&gt;" style="ellipse;whiteSpace=wrap;html=1;aspect=fixed;" vertex="1" parent="1">
          <mxGeometry x="240" y="970" width="80" height="80" as="geometry" />
        </mxCell>
        <mxCell id="ROehiFO6zA04ljlGe-8Q-43" value="" style="edgeStyle=orthogonalEdgeStyle;rounded=0;orthogonalLoop=1;jettySize=auto;html=1;" edge="1" parent="1" source="ROehiFO6zA04ljlGe-8Q-35" target="ROehiFO6zA04ljlGe-8Q-41">
          <mxGeometry relative="1" as="geometry" />
        </mxCell>
        <mxCell id="ROehiFO6zA04ljlGe-8Q-35" value="&lt;font style=&quot;font-size: 32px;&quot;&gt;*&lt;/font&gt;" style="ellipse;whiteSpace=wrap;html=1;aspect=fixed;" vertex="1" parent="1">
          <mxGeometry x="240" y="760" width="80" height="80" as="geometry" />
        </mxCell>
        <mxCell id="ROehiFO6zA04ljlGe-8Q-42" style="edgeStyle=orthogonalEdgeStyle;rounded=0;orthogonalLoop=1;jettySize=auto;html=1;entryX=0.5;entryY=0;entryDx=0;entryDy=0;" edge="1" parent="1" source="ROehiFO6zA04ljlGe-8Q-38" target="ROehiFO6zA04ljlGe-8Q-41">
          <mxGeometry relative="1" as="geometry" />
        </mxCell>
        <mxCell id="ROehiFO6zA04ljlGe-8Q-38" value="&lt;font style=&quot;font-size: 32px;&quot;&gt;cos&lt;/font&gt;" style="ellipse;whiteSpace=wrap;html=1;aspect=fixed;" vertex="1" parent="1">
          <mxGeometry x="100" y="560" width="80" height="80" as="geometry" />
        </mxCell>
        <mxCell id="ROehiFO6zA04ljlGe-8Q-45" value="" style="edgeStyle=orthogonalEdgeStyle;rounded=0;orthogonalLoop=1;jettySize=auto;html=1;" edge="1" parent="1" source="ROehiFO6zA04ljlGe-8Q-41" target="ROehiFO6zA04ljlGe-8Q-44">
          <mxGeometry relative="1" as="geometry" />
        </mxCell>
        <mxCell id="ROehiFO6zA04ljlGe-8Q-41" value="&lt;font style=&quot;font-size: 32px;&quot;&gt;+&lt;/font&gt;" style="ellipse;whiteSpace=wrap;html=1;aspect=fixed;" vertex="1" parent="1">
          <mxGeometry x="385" y="760" width="80" height="80" as="geometry" />
        </mxCell>
        <mxCell id="ROehiFO6zA04ljlGe-8Q-44" value="&lt;font style=&quot;font-size: 32px;&quot;&gt;f2&lt;/font&gt;" style="ellipse;whiteSpace=wrap;html=1;aspect=fixed;" vertex="1" parent="1">
          <mxGeometry x="520" y="760" width="80" height="80" as="geometry" />
        </mxCell>
        <mxCell id="ROehiFO6zA04ljlGe-8Q-46" value="&lt;font style=&quot;font-size: 19px;&quot;&gt;X1 = 4&lt;/font&gt;" style="text;html=1;align=center;verticalAlign=middle;whiteSpace=wrap;rounded=0;" vertex="1" parent="1">
          <mxGeometry x="375" y="50" width="60" height="30" as="geometry" />
        </mxCell>
        <mxCell id="ROehiFO6zA04ljlGe-8Q-47" value="&lt;span style=&quot;font-size: 19px;&quot;&gt;W1 = 2&lt;/span&gt;" style="text;html=1;align=center;verticalAlign=middle;whiteSpace=wrap;rounded=0;" vertex="1" parent="1">
          <mxGeometry x="95" y="130" width="90" height="30" as="geometry" />
        </mxCell>
        <mxCell id="ROehiFO6zA04ljlGe-8Q-48" value="&lt;span style=&quot;font-size: 19px;&quot;&gt;W2 = 1&lt;/span&gt;" style="text;html=1;align=center;verticalAlign=middle;whiteSpace=wrap;rounded=0;" vertex="1" parent="1">
          <mxGeometry x="95" y="260" width="90" height="30" as="geometry" />
        </mxCell>
        <mxCell id="ROehiFO6zA04ljlGe-8Q-49" value="&lt;font style=&quot;font-size: 19px;&quot;&gt;X2 = 1&lt;/font&gt;" style="text;html=1;align=center;verticalAlign=middle;whiteSpace=wrap;rounded=0;" vertex="1" parent="1">
          <mxGeometry x="365" y="330" width="60" height="30" as="geometry" />
        </mxCell>
        <mxCell id="ROehiFO6zA04ljlGe-8Q-50" value="&lt;font style=&quot;font-size: 19px;&quot;&gt;X3 = 5&lt;/font&gt;" style="text;html=1;align=center;verticalAlign=middle;whiteSpace=wrap;rounded=0;" vertex="1" parent="1">
          <mxGeometry x="425" y="165" width="60" height="30" as="geometry" />
        </mxCell>
        <mxCell id="ROehiFO6zA04ljlGe-8Q-51" value="&lt;font style=&quot;font-size: 19px;&quot;&gt;X4 = ln(5) = 1..61&lt;/font&gt;" style="text;html=1;align=center;verticalAlign=middle;whiteSpace=wrap;rounded=0;" vertex="1" parent="1">
          <mxGeometry x="490" y="135" width="165" height="30" as="geometry" />
        </mxCell>
        <mxCell id="ROehiFO6zA04ljlGe-8Q-52" value="&lt;font style=&quot;font-size: 19px;&quot;&gt;X5 = 2.72&lt;/font&gt;" style="text;html=1;align=center;verticalAlign=middle;whiteSpace=wrap;rounded=0;" vertex="1" parent="1">
          <mxGeometry x="375" y="440" width="100" height="30" as="geometry" />
        </mxCell>
        <mxCell id="ROehiFO6zA04ljlGe-8Q-53" value="&lt;font style=&quot;font-size: 19px;&quot;&gt;X6 = 5.44&lt;/font&gt;" style="text;html=1;align=center;verticalAlign=middle;whiteSpace=wrap;rounded=0;" vertex="1" parent="1">
          <mxGeometry x="630" y="340" width="100" height="30" as="geometry" />
        </mxCell>
        <mxCell id="ROehiFO6zA04ljlGe-8Q-54" value="&lt;font style=&quot;font-size: 19px;&quot;&gt;f1 = 7.046&lt;/font&gt;" style="text;html=1;align=center;verticalAlign=middle;whiteSpace=wrap;rounded=0;" vertex="1" parent="1">
          <mxGeometry x="700" y="260" width="100" height="30" as="geometry" />
        </mxCell>
        <mxCell id="ROehiFO6zA04ljlGe-8Q-55" value="&lt;span style=&quot;font-size: 19px;&quot;&gt;W1 = 2&lt;/span&gt;" style="text;html=1;align=center;verticalAlign=middle;whiteSpace=wrap;rounded=0;" vertex="1" parent="1">
          <mxGeometry x="95" y="850" width="90" height="30" as="geometry" />
        </mxCell>
        <mxCell id="ROehiFO6zA04ljlGe-8Q-56" value="&lt;span style=&quot;font-size: 19px;&quot;&gt;W2 = 1&lt;/span&gt;" style="text;html=1;align=center;verticalAlign=middle;whiteSpace=wrap;rounded=0;" vertex="1" parent="1">
          <mxGeometry x="95" y="930" width="90" height="30" as="geometry" />
        </mxCell>
        <mxCell id="ROehiFO6zA04ljlGe-8Q-57" value="&lt;font style=&quot;font-size: 19px;&quot;&gt;X7 = -0.416&lt;/font&gt;" style="text;html=1;align=center;verticalAlign=middle;whiteSpace=wrap;rounded=0;" vertex="1" parent="1">
          <mxGeometry x="240" y="610" width="140" height="30" as="geometry" />
        </mxCell>
        <mxCell id="ROehiFO6zA04ljlGe-8Q-58" value="&lt;font style=&quot;font-size: 19px;&quot;&gt;X8 = 0.841&amp;nbsp;&lt;/font&gt;" style="text;html=1;align=center;verticalAlign=middle;whiteSpace=wrap;rounded=0;" vertex="1" parent="1">
          <mxGeometry x="270" y="890" width="140" height="30" as="geometry" />
        </mxCell>
        <mxCell id="ROehiFO6zA04ljlGe-8Q-59" value="&lt;span style=&quot;font-size: 19px;&quot;&gt;X9 = 1.683&lt;/span&gt;" style="text;html=1;align=center;verticalAlign=middle;whiteSpace=wrap;rounded=0;" vertex="1" parent="1">
          <mxGeometry x="270" y="730" width="140" height="30" as="geometry" />
        </mxCell>
        <mxCell id="ROehiFO6zA04ljlGe-8Q-60" value="&lt;span style=&quot;font-size: 19px;&quot;&gt;f2 = 1.267&lt;/span&gt;" style="text;html=1;align=center;verticalAlign=middle;whiteSpace=wrap;rounded=0;" vertex="1" parent="1">
          <mxGeometry x="490" y="850" width="140" height="30" as="geometry" />
        </mxCell>
      </root>
    </mxGraphModel>
  </diagram>
</mxfile>
